<svg xmlns="http://www.w3.org/2000/svg" width="500" zoomAndPan="magnify" viewBox="0 0 375 375" height="500" preserveAspectRatio="xMidYMid meet" xmlns:v="https://vecta.io/nano"><style><![CDATA[.B{clip-rule:nonzero}.C{fill-rule:evenodd}]]></style><defs><clipPath id="A"><path d="M0 4.09h203V194H0zm0 0" class="B"/></clipPath><clipPath id="B"><path d="M13 5h339v365.84H13zm0 0" class="B"/></clipPath><clipPath id="C"><path d="M159 199h216v171.84H159zm0 0" class="B"/></clipPath><clipPath id="D"><path d="M0 274.586h53.625v96H0zm0 0" class="B"/></clipPath></defs><g clip-path="url(#A)" class="C"><path fill="#fff" d="M52.254 144.895c14.496-45.246 51.848-80.258 98.461-91.469L202.84 5.008c-6.547-.715-13.199-1.078-19.93-1.078C81.906 3.93.043 85.785.043 186.797a177.39 177.39 0 0 0 .113 6.469l18.59-17.234zm0 0"/></g><g clip-path="url(#B)" class="C"><path fill="#fff" d="M99.566 239.25l170.52-158.367 33.707-31.305 47.785-44.379h-87.59l-12.805 11.895-38.508 35.77L47.164 206.629l-33.625 31.18 133.285 133.277h84.578l-47.137-47.129zm0 0"/></g><g clip-path="url(#C)" class="C"><path fill="#fff" d="M203.504 199.633l-43.773 40.738 19.238 19.305 111.418 111.41h84.578l-58.922-58.914zm0 0"/></g><path fill="#fff" d="M297.926 112.016c14.008 21.508 22.152 47.191 22.152 74.773 0 21.016-4.727 40.934-13.18 58.738l33.789 33.777c15.945-27.133 25.09-58.758 25.09-92.516 0-39.609-12.59-76.281-33.992-106.227zm0 0" class="C"/><g clip-path="url(#D)"><path fill="#ff66c4" d="M.094 274.586l94.887 96.301H.094zm0 0"/></g></svg>